# xmcd
# 
# Track frame offsets:
#     150
#     23872
#     58730
#     72231
#     87716
#     103643
#     118734
#     128994
#     143176
#     157858
#     170095
#     181131
#     192801
#     204943
#     215865
# 
# Disc length: 3032
# 
# Revision: 0
# Processed by: cddbd v1.5.2PL0 Copyright (c) Steve Scherf et al.
# Submitted via: fre:ac v1.0.31
# 
DISCID=df0bd60f
DTITLE=Sonny Rollins - The Prestige Years [CD1]
DYEAR=2014
DGENRE=Jazz
TTITLE0=The Way You Look Tonight
TTITLE1=I Want To Be Happy
TTITLE2=3 The Stopper
TTITLE3=Almost Like Being In Love
TTITLE4=No Moe
TTITLE5=In A Sentimental Mood
TTITLE6=Scoops
TTITLE7=With A Song In My Heart
TTITLE8=Newk's Fadeaway
TTITLE9=Time On My Hands
TTITLE10=This Love Of Mine
TTITLE11=Shadrack
TTITLE12=On A Slow Boat To China
TTITLE13=Mambo Bounce
TTITLE14=I Know
EXTD=
EXTT0=
EXTT1=
EXTT2=
EXTT3=
EXTT4=
EXTT5=
EXTT6=
EXTT7=
EXTT8=
EXTT9=
EXTT10=
EXTT11=
EXTT12=
EXTT13=
EXTT14=
PLAYORDER=
